#N canvas 0 0 1334 658 10;
#X obj 224 66 phasor~;
#X obj 224 139 expr~ ($v1 * -1) + 1;
#X obj 169 141 cos~;
#X obj 85 169 expr~ ($v1 / 2) + 0.5;
#X obj 379 137 expr~ $v1 > 0.5;
#X obj 498 139 noise~;
#X obj 218 339 *~;
#X obj 248 339 *~;
#X obj 278 339 *~;
#X obj 308 339 *~;
#X obj 269 483 outlet~;
#X msg 616 251 0;
#X obj 606 274 tgl 15 0 empty empty empty 17 7 0 10 -262144 -1 -1 0
1;
#X msg 646 251 0;
#X obj 636 274 tgl 15 0 empty empty empty 17 7 0 10 -262144 -1 -1 0
1;
#X msg 676 251 0;
#X obj 666 274 tgl 15 0 empty empty empty 17 7 0 10 -262144 -1 -1 1
1;
#X msg 706 251 0;
#X obj 696 274 tgl 15 0 empty empty empty 17 7 0 10 -262144 -1 -1 0
3;
#X obj 619 208 route 0 1 2;
#X obj 120 80 inlet;
#X obj 619 177 inlet;
#X obj 129 109 * 50;
#X connect 0 0 1 0;
#X connect 0 0 2 0;
#X connect 0 0 4 0;
#X connect 1 0 7 0;
#X connect 2 0 3 0;
#X connect 3 0 6 0;
#X connect 4 0 8 0;
#X connect 5 0 9 0;
#X connect 6 0 10 0;
#X connect 7 0 10 0;
#X connect 8 0 10 0;
#X connect 9 0 10 0;
#X connect 11 0 12 0;
#X connect 12 0 6 1;
#X connect 13 0 14 0;
#X connect 14 0 7 1;
#X connect 15 0 16 0;
#X connect 16 0 8 1;
#X connect 17 0 18 0;
#X connect 18 0 9 1;
#X connect 19 0 12 0;
#X connect 19 0 13 0;
#X connect 19 0 17 0;
#X connect 19 0 15 0;
#X connect 19 1 14 0;
#X connect 19 1 15 0;
#X connect 19 1 17 0;
#X connect 19 1 11 0;
#X connect 19 2 16 0;
#X connect 19 2 11 0;
#X connect 19 2 13 0;
#X connect 19 2 17 0;
#X connect 19 3 18 0;
#X connect 19 3 15 0;
#X connect 19 3 13 0;
#X connect 19 3 11 0;
#X connect 20 0 22 0;
#X connect 21 0 19 0;
#X connect 22 0 0 0;
