#N canvas 442 179 450 300 10;
#X obj 146 -133 adc~;
#X obj 211 39 *~;
#X obj 226 -124 vsl 15 128 0.01 1.01 1 0 empty empty Gain 0 -9 0 10
-262144 -1 -1 0 1;
#X obj 226 14 - 0.01;
#X obj 297 54 hip~ 1;
#X obj 276 80 dac~;
#X obj 167 -108 hip~ 170;
#X obj 297 31 *~;
#X obj 312 -132 vsl 15 128 0.01 1.01 1 0 empty empty Gain 0 -9 0 10
-262144 -1 -1 0 1;
#X obj 312 6 - 0.01;
#X connect 0 1 6 0;
#X connect 2 0 3 0;
#X connect 3 0 1 1;
#X connect 4 0 5 1;
#X connect 6 0 1 0;
#X connect 7 0 4 0;
#X connect 8 0 9 0;
#X connect 9 0 7 1;
