#N canvas 0 0 1334 658 10;
#X obj 638 232 vsl 15 128 0 127 0 0 empty empty Cutoff 0 -9 0 10 -262144
-1 -1 0 1;
#X obj 638 370 mtof;
#X obj 727 265 vsl 15 128 0 1 0 0 empty empty Resonance 0 -9 0 10 -262144
-1 -1 0 1;
#X obj 648 462 pack 0 50;
#X obj 648 484 line~;
#X obj 571 217 *~;
#X obj 586 54 vsl 15 128 0.01 1.01 1 0 empty empty Mod 0 -9 0 10 -262144
-1 -1 0 1;
#X obj 586 192 - 0.01;
#X obj 571 305 +~;
#X obj 525 499 svf~;
#X obj 469 596 *~ 0;
#X obj 509 596 *~ 0;
#X obj 549 596 *~ 0;
#X obj 589 596 *~ 0;
#X obj 571 262 mtof~;
#X obj 571 240 *~ 127;
#X obj 388 375 inlet~;
#X obj 169 341 vradio 15 0 0 4 empty empty empty 0 -8 0 10 -262144
-1 -1 0;
#X msg 166 449 0;
#X obj 156 472 tgl 15 0 empty empty empty 17 7 0 10 -262144 -1 -1 1
1;
#X msg 196 449 0;
#X obj 186 472 tgl 15 0 empty empty empty 17 7 0 10 -262144 -1 -1 0
1;
#X msg 226 449 0;
#X obj 216 472 tgl 15 0 empty empty empty 17 7 0 10 -262144 -1 -1 0
1;
#X msg 256 449 0;
#X obj 246 472 tgl 15 0 empty empty empty 17 7 0 10 -262144 -1 -1 0
3;
#X obj 169 406 route 0 1 2;
#X text 186 340 lo;
#X text 186 355 hi;
#X text 186 370 bnd;
#X text 186 385 ntch;
#X obj 169 314 loadbang;
#X obj 500 642 outlet~;
#X obj 536 188 inlet~;
#X connect 0 0 1 0;
#X connect 1 0 8 1;
#X connect 2 0 3 0;
#X connect 3 0 4 0;
#X connect 4 0 9 2;
#X connect 5 0 15 0;
#X connect 6 0 7 0;
#X connect 7 0 5 1;
#X connect 8 0 9 1;
#X connect 9 0 10 0;
#X connect 9 1 11 0;
#X connect 9 2 12 0;
#X connect 9 3 13 0;
#X connect 10 0 32 0;
#X connect 11 0 32 0;
#X connect 12 0 32 0;
#X connect 13 0 32 0;
#X connect 14 0 8 0;
#X connect 15 0 14 0;
#X connect 16 0 9 0;
#X connect 17 0 26 0;
#X connect 18 0 19 0;
#X connect 19 0 10 1;
#X connect 20 0 21 0;
#X connect 21 0 11 1;
#X connect 22 0 23 0;
#X connect 23 0 12 1;
#X connect 24 0 25 0;
#X connect 25 0 13 1;
#X connect 26 0 19 0;
#X connect 26 0 20 0;
#X connect 26 0 24 0;
#X connect 26 0 22 0;
#X connect 26 1 21 0;
#X connect 26 1 22 0;
#X connect 26 1 24 0;
#X connect 26 1 18 0;
#X connect 26 2 23 0;
#X connect 26 2 18 0;
#X connect 26 2 20 0;
#X connect 26 2 24 0;
#X connect 26 3 25 0;
#X connect 26 3 22 0;
#X connect 26 3 20 0;
#X connect 26 3 18 0;
#X connect 31 0 17 0;
#X connect 33 0 5 0;
