#N canvas 0 0 1334 658 10;
#X obj 598 398 *~;
#X obj 341 336 vsl 15 128 0.01 1.01 1 0 empty empty Vol 0 -9 0 10 -262144
-1 -1 4900 1;
#X obj 598 373 - 0.01;
#X obj 511 288 tanh~;
#X obj 511 262 *~ 1000;
#X obj 532 206 *~;
#X obj 313 336 vsl 15 128 0.01 1.01 1 0 empty empty Gain 0 -9 0 10
-262144 -1 -1 11000 1;
#X obj 552 181 - 0.01;
#X obj 480 161 inlet~;
#X obj 601 474 outlet~;
#X connect 0 0 9 0;
#X connect 1 0 2 0;
#X connect 2 0 0 1;
#X connect 3 0 0 0;
#X connect 4 0 3 0;
#X connect 5 0 4 0;
#X connect 6 0 7 0;
#X connect 7 0 5 1;
#X connect 8 0 5 0;
#X coords 0 -1 1 1 64 157 2 303 322;
